<?xml version="1.0" encoding="UTF-8"?>
<!-- Generator: Adobe Illustrator 18.0.0, SVG Export Plug-In . SVG Version: 6.00 Build 0)  -->
<svg xmlns="http://www.w3.org/2000/svg" xmlns:xlink="http://www.w3.org/1999/xlink" version="1.1" id="Capa_1" x="0px" y="0px" width="504.6px" height="90.7px" viewBox="0 0 504.6 90.7" xml:space="preserve">
<g>
	<polygon fill="#0AA94D" stroke="#0AA94D" stroke-width="2" stroke-miterlimit="10" points="77,23.9 39.9,2.5 2.8,24 2.9,66.8    2.9,66.8 8.7,70.2 8.7,63.4 8.7,63.4 8.7,31.8 8.7,31.8 8.7,27.3 39.9,9.3 71.1,27.3 71.2,63.3 40,81.4 19.8,69.8 19.7,42 19.7,42    19.7,34.4 39.3,23.1 58.9,34.4 58.9,57 39.3,68.3 31.4,63.8 31.4,50.3 31.4,41.1 39.3,36.5 47.3,41.1 47.3,50.3 39.3,54.9    37.2,53.6 37.2,60.4 39.3,61.6 53.1,53.6 53.1,37.7 39.3,29.8 25.5,37.8 25.6,67.1 31.4,70.5 39.4,75.1 64.8,60.3 64.7,31    39.3,16.3 13.9,31.1 13.9,66.4 13.9,73.2 13.9,73.2 13.9,73.2 19.8,76.5 19.8,76.5 40,88.2 77,66.7  "></polygon>
	<g>
		<g>
			<g>
				<path fill="#0AA94D" d="M108.8,20.1c1.7,0.8,3,1.9,3.9,3.3s1.4,3.1,1.4,5s-0.5,3.6-1.4,5s-2.2,2.5-3.9,3.3      c-1.7,0.8-3.7,1.1-6,1.1h-5.2V45h-6V18.9h11.3C105.1,18.9,107.1,19.3,108.8,20.1z M106.6,31.7c0.9-0.8,1.4-1.9,1.4-3.3      c0-1.5-0.5-2.6-1.4-3.4s-2.3-1.2-4.1-1.2h-4.9v9h4.9C104.3,32.9,105.7,32.5,106.6,31.7z"></path>
				<path fill="#0AA94D" d="M124.1,43.7c-2.2-1.2-3.9-2.8-5.1-4.8s-1.8-4.3-1.8-6.9s0.6-4.9,1.8-6.9c1.2-2,2.9-3.7,5.1-4.8      c2.2-1.2,4.6-1.7,7.3-1.7s5.1,0.6,7.3,1.7c2.2,1.2,3.9,2.8,5.1,4.8c1.2,2,1.9,4.3,1.9,6.9s-0.6,4.9-1.9,6.9      c-1.2,2-2.9,3.7-5.1,4.8c-2.2,1.2-4.6,1.7-7.3,1.7C128.7,45.4,126.2,44.8,124.1,43.7z M135.6,39.2c1.2-0.7,2.2-1.7,2.9-3      s1.1-2.7,1.1-4.3c0-1.6-0.4-3.1-1.1-4.3c-0.7-1.3-1.7-2.3-2.9-3s-2.6-1.1-4.2-1.1c-1.5,0-2.9,0.4-4.2,1.1      c-1.2,0.7-2.2,1.7-2.9,3c-0.7,1.3-1.1,2.7-1.1,4.3s0.4,3.1,1.1,4.3c0.7,1.3,1.7,2.3,2.9,3c1.2,0.7,2.6,1.1,4.2,1.1      C132.9,40.3,134.3,39.9,135.6,39.2z"></path>
				<path fill="#0AA94D" d="M150.2,18.9h6V40h13.1v5h-19.1V18.9z"></path>
				<path fill="#0AA94D" d="M182.5,35.7V45h-6v-9.3L166.4,19h6.4l7,11.6l7-11.6h5.9L182.5,35.7z"></path>
				<path fill="#0AA94D" d="M218.6,45V29.4l-7.7,12.9h-2.7l-7.6-12.5V45h-5.7V18.9h5l9.8,16.2l9.6-16.2h5l0.1,26.1H218.6z"></path>
				<path fill="#0AA94D" d="M250.6,40.1V45h-20.2V18.9h19.7v4.8h-13.7v5.7h12.1v4.7h-12.1v6C236.4,40.1,250.6,40.1,250.6,40.1z"></path>
				<path fill="#0AA94D" d="M272,45l-5-7.3h-0.3h-5.2V45h-6V18.9h11.3c2.3,0,4.3,0.4,6,1.2c1.7,0.8,3,1.9,3.9,3.3s1.4,3.1,1.4,5      s-0.5,3.6-1.4,5s-2.3,2.5-4,3.2l5.8,8.4H272z M270.5,25c-0.9-0.8-2.3-1.2-4.1-1.2h-4.9v9.1h4.9c1.8,0,3.2-0.4,4.1-1.2      s1.4-1.9,1.4-3.3C271.9,26.9,271.4,25.8,270.5,25z"></path>
			</g>
			<g>
				<path fill="#FFFFFF" d="M285.1,44.5c-1.9-0.6-3.4-1.3-4.4-2.3l1.7-3.8c1.1,0.8,2.4,1.5,3.9,2.1c1.6,0.5,3.1,0.8,4.7,0.8      c1.9,0,3.4-0.3,4.3-0.9c1-0.6,1.4-1.4,1.4-2.5c0-0.7-0.3-1.4-0.8-1.8c-0.5-0.5-1.2-0.9-2-1.1c-0.8-0.3-1.9-0.6-3.3-0.9      c-2-0.5-3.6-0.9-4.8-1.4c-1.2-0.5-2.3-1.2-3.2-2.2c-0.9-1-1.3-2.4-1.3-4.1c0-1.4,0.4-2.7,1.2-3.9c0.8-1.2,2-2.1,3.5-2.8      c1.6-0.7,3.5-1,5.8-1c1.6,0,3.2,0.2,4.7,0.6s2.9,1,4,1.7l-1.5,3.8c-1.1-0.7-2.3-1.2-3.6-1.5c-1.2-0.3-2.4-0.5-3.6-0.5      c-1.9,0-3.3,0.3-4.3,1c-0.9,0.6-1.4,1.5-1.4,2.6c0,0.7,0.3,1.4,0.8,1.8c0.5,0.5,1.2,0.8,2,1.1c0.8,0.3,1.9,0.6,3.3,0.9      c1.9,0.4,3.5,0.9,4.8,1.4c1.2,0.5,2.3,1.2,3.2,2.2c0.9,1,1.3,2.3,1.3,4c0,1.4-0.4,2.7-1.2,3.9c-0.8,1.2-2,2.1-3.6,2.8      s-3.5,1-5.8,1C289,45.3,287,45.1,285.1,44.5z"></path>
				<path fill="#FFFFFF" d="M311.3,43.6c-2.1-1.2-3.8-2.8-5-4.8s-1.8-4.3-1.8-6.9c0-2.5,0.6-4.8,1.8-6.9c1.2-2,2.9-3.6,5-4.8      c2.1-1.2,4.5-1.7,7.2-1.7s5,0.6,7.2,1.7c2.1,1.2,3.8,2.7,5,4.8c1.2,2,1.8,4.3,1.8,6.9s-0.6,4.9-1.8,6.9c-1.2,2-2.9,3.6-5,4.8      s-4.5,1.7-7.2,1.7S313.4,44.8,311.3,43.6z M323.2,39.9c1.4-0.8,2.5-1.9,3.3-3.3c0.8-1.4,1.2-3,1.2-4.7s-0.4-3.3-1.2-4.7      c-0.8-1.4-1.9-2.5-3.3-3.3s-3-1.2-4.7-1.2s-3.3,0.4-4.7,1.2c-1.4,0.8-2.5,1.9-3.3,3.3s-1.2,3-1.2,4.7s0.4,3.3,1.2,4.7      c0.8,1.4,1.9,2.5,3.3,3.3s3,1.2,4.7,1.2C320.2,41.1,321.8,40.7,323.2,39.9z"></path>
				<path fill="#FFFFFF" d="M337.6,18.9h4.8v22H356V45h-18.5V18.9H337.6z"></path>
				<path fill="#FFFFFF" d="M362.4,42.3c-2-2-3-4.9-3-8.7V18.9h4.8v14.5c0,5.1,2.2,7.7,6.6,7.7s6.6-2.6,6.6-7.7V18.9h4.8v14.7      c0,3.8-1,6.7-3,8.7s-4.8,3-8.4,3C367.2,45.3,364.4,44.3,362.4,42.3z"></path>
				<path fill="#FFFFFF" d="M393.7,23h-8.6v-4.1h22.1V23h-8.6v22h-4.8V23H393.7z"></path>
				<path fill="#FFFFFF" d="M410.9,18.9h4.8V45h-4.8V18.9z"></path>
				<path fill="#FFFFFF" d="M427.7,43.6c-2.1-1.2-3.8-2.8-5-4.8s-1.8-4.3-1.8-6.9c0-2.5,0.6-4.8,1.8-6.9c1.2-2,2.9-3.6,5-4.8      c2.1-1.2,4.5-1.7,7.2-1.7s5,0.6,7.2,1.7c2.1,1.2,3.8,2.7,5,4.8c1.2,2,1.8,4.3,1.8,6.9s-0.6,4.9-1.8,6.9c-1.2,2-2.9,3.6-5,4.8      s-4.5,1.7-7.2,1.7S429.8,44.8,427.7,43.6z M439.6,39.9c1.4-0.8,2.5-1.9,3.3-3.3c0.8-1.4,1.2-3,1.2-4.7s-0.4-3.3-1.2-4.7      c-0.8-1.4-1.9-2.5-3.3-3.3s-3-1.2-4.7-1.2s-3.3,0.4-4.7,1.2c-1.4,0.8-2.5,1.9-3.3,3.3s-1.2,3-1.2,4.7s0.4,3.3,1.2,4.7      c0.8,1.4,1.9,2.5,3.3,3.3s3,1.2,4.7,1.2C436.6,41.1,438.2,40.7,439.6,39.9z"></path>
				<path fill="#FFFFFF" d="M477.2,18.9V45h-4l-14.4-17.6V45H454V18.9h4l14.4,17.6V18.9H477.2z"></path>
				<path fill="#FFFFFF" d="M486.5,44.5c-1.9-0.6-3.4-1.3-4.4-2.3l1.7-3.8c1.1,0.8,2.4,1.5,3.9,2.1c1.6,0.5,3.1,0.8,4.7,0.8      c1.9,0,3.4-0.3,4.3-0.9c1-0.6,1.4-1.4,1.4-2.5c0-0.7-0.3-1.4-0.8-1.8c-0.5-0.5-1.2-0.9-2-1.1c-0.8-0.3-1.9-0.6-3.3-0.9      c-2-0.5-3.6-0.9-4.8-1.4c-1.2-0.5-2.3-1.2-3.2-2.2c-0.9-1-1.3-2.4-1.3-4.1c0-1.4,0.4-2.7,1.2-3.9c0.8-1.2,2-2.1,3.5-2.8      c1.6-0.7,3.5-1,5.8-1c1.6,0,3.2,0.2,4.7,0.6s2.9,1,4,1.7l-1.5,3.8c-1.1-0.7-2.3-1.2-3.6-1.5c-1.2-0.3-2.4-0.5-3.6-0.5      c-1.9,0-3.3,0.3-4.3,1c-0.9,0.6-1.4,1.5-1.4,2.6c0,0.7,0.3,1.4,0.8,1.8c0.5,0.5,1.2,0.8,2,1.1c0.8,0.3,1.9,0.6,3.3,0.9      c1.9,0.4,3.5,0.9,4.8,1.4c1.2,0.5,2.3,1.2,3.2,2.2c0.9,1,1.3,2.3,1.3,4c0,1.4-0.4,2.7-1.2,3.9c-0.8,1.2-2,2.1-3.6,2.8      s-3.5,1-5.8,1C490.3,45.3,488.3,45.1,486.5,44.5z"></path>
			</g>
		</g>
		<g>
			<path fill="#FFFFFF" d="M93.9,68.7c-1.1-0.4-1.9-0.9-2.4-1.5l0.6-1.3c0.6,0.6,1.3,1,2.2,1.4c0.9,0.3,1.9,0.5,2.9,0.5     c1.4,0,2.4-0.3,3.1-0.8s1-1.2,1-2c0-0.6-0.2-1.1-0.6-1.5s-0.8-0.7-1.4-0.8C98.8,62.5,98,62.3,97,62c-1.2-0.3-2.1-0.6-2.8-0.8     c-0.7-0.3-1.3-0.7-1.8-1.2c-0.5-0.6-0.7-1.3-0.7-2.3c0-0.8,0.2-1.5,0.6-2.1s1-1.2,1.9-1.5c0.9-0.4,1.9-0.6,3.2-0.6     c0.9,0,1.7,0.1,2.6,0.4c0.8,0.2,1.6,0.6,2.2,1l-0.6,1.3c-0.6-0.4-1.3-0.7-2.1-1c-0.7-0.2-1.5-0.3-2.2-0.3c-1.4,0-2.4,0.3-3.1,0.8     s-1,1.2-1,2c0,0.6,0.2,1.1,0.6,1.5s0.8,0.7,1.4,0.9s1.3,0.4,2.3,0.7c1.1,0.3,2,0.6,2.7,0.8c0.7,0.3,1.3,0.7,1.8,1.2     c0.5,0.6,0.7,1.3,0.7,2.2c0,0.8-0.2,1.5-0.6,2.1s-1.1,1.1-1.9,1.5c-0.9,0.4-1.9,0.6-3.2,0.6C96,69.2,94.9,69,93.9,68.7z"></path>
			<path fill="#FFFFFF" d="M110.6,68.2c-1.2-0.7-2.2-1.6-2.9-2.8c-0.7-1.2-1-2.5-1-4s0.3-2.8,1-4s1.7-2.1,2.9-2.8     c1.2-0.7,2.6-1,4.2-1c1.5,0,2.9,0.3,4.1,1s2.2,1.6,2.9,2.8c0.7,1.2,1.1,2.5,1.1,4s-0.4,2.8-1.1,4s-1.7,2.1-2.9,2.8     c-1.2,0.7-2.6,1-4.1,1C113.2,69.2,111.8,68.9,110.6,68.2z M118.1,66.9c1-0.6,1.8-1.3,2.3-2.3c0.6-1,0.8-2.1,0.8-3.3     s-0.3-2.3-0.8-3.3c-0.6-1-1.3-1.7-2.3-2.3s-2.1-0.8-3.3-0.8c-1.2,0-2.3,0.3-3.3,0.8c-1,0.6-1.8,1.3-2.3,2.3     c-0.6,1-0.8,2.1-0.8,3.3s0.3,2.3,0.8,3.3c0.6,1,1.3,1.7,2.3,2.3c1,0.6,2.1,0.8,3.3,0.8C116,67.8,117.1,67.5,118.1,66.9z"></path>
			<path fill="#FFFFFF" d="M128,53.7h1.6v14h8.6v1.4H128V53.7z"></path>
			<path fill="#FFFFFF" d="M143.8,67.5c-1.1-1.1-1.7-2.8-1.7-5v-8.8h1.6v8.8c0,1.8,0.4,3.1,1.2,4s2,1.3,3.5,1.3s2.7-0.4,3.5-1.3     s1.2-2.2,1.2-4v-8.8h1.6v8.8c0,2.2-0.6,3.9-1.7,5c-1.1,1.1-2.7,1.7-4.7,1.7C146.5,69.2,144.9,68.7,143.8,67.5z"></path>
			<path fill="#FFFFFF" d="M163.9,55.1h-5.4v-1.4H171v1.4h-5.4v14H164v-14H163.9z"></path>
			<path fill="#FFFFFF" d="M175.1,53.7h1.6v15.4h-1.6V53.7z"></path>
			<path fill="#FFFFFF" d="M185.9,68.2c-1.2-0.7-2.2-1.6-2.9-2.8c-0.7-1.2-1-2.5-1-4s0.3-2.8,1-4s1.7-2.1,2.9-2.8s2.6-1,4.2-1     c1.5,0,2.9,0.3,4.1,1c1.2,0.7,2.2,1.6,2.9,2.8s1.1,2.5,1.1,4s-0.4,2.8-1.1,4c-0.7,1.2-1.7,2.1-2.9,2.8c-1.2,0.7-2.6,1-4.1,1     C188.5,69.2,187.1,68.9,185.9,68.2z M193.4,66.9c1-0.6,1.8-1.3,2.3-2.3c0.6-1,0.8-2.1,0.8-3.3s-0.3-2.3-0.8-3.3     c-0.6-1-1.3-1.7-2.3-2.3s-2.1-0.8-3.3-0.8s-2.3,0.3-3.3,0.8c-1,0.6-1.8,1.3-2.3,2.3c-0.6,1-0.8,2.1-0.8,3.3s0.3,2.3,0.8,3.3     c0.6,1,1.3,1.7,2.3,2.3c1,0.6,2.1,0.8,3.3,0.8C191.3,67.8,192.4,67.5,193.4,66.9z"></path>
			<path fill="#FFFFFF" d="M216.2,53.7v15.4h-1.3L205,56.6v12.5h-1.6V53.7h1.3l9.9,12.5V53.7H216.2z"></path>
			<path fill="#FFFFFF" d="M223.7,68.7c-1.1-0.4-1.9-0.9-2.4-1.5l0.6-1.3c0.6,0.6,1.3,1,2.2,1.4c0.9,0.3,1.9,0.5,2.9,0.5     c1.4,0,2.4-0.3,3.1-0.8c0.7-0.5,1-1.2,1-2c0-0.6-0.2-1.1-0.6-1.5c-0.4-0.4-0.8-0.7-1.4-0.8c-0.5-0.2-1.3-0.4-2.3-0.7     c-1.2-0.3-2.1-0.6-2.8-0.8c-0.7-0.3-1.3-0.7-1.8-1.2c-0.5-0.6-0.7-1.3-0.7-2.3c0-0.8,0.2-1.5,0.6-2.1c0.4-0.6,1-1.2,1.9-1.5     c0.9-0.4,1.9-0.6,3.2-0.6c0.9,0,1.7,0.1,2.6,0.4c0.8,0.2,1.6,0.6,2.2,1l-0.6,1.3c-0.6-0.4-1.3-0.7-2.1-1     c-0.7-0.2-1.5-0.3-2.2-0.3c-1.4,0-2.4,0.3-3.1,0.8c-0.7,0.5-1,1.2-1,2c0,0.6,0.2,1.1,0.6,1.5c0.4,0.4,0.8,0.7,1.4,0.9     c0.6,0.2,1.3,0.4,2.3,0.7c1.1,0.3,2,0.6,2.7,0.8c0.7,0.3,1.3,0.7,1.8,1.2c0.5,0.6,0.7,1.3,0.7,2.2c0,0.8-0.2,1.5-0.6,2.1     c-0.4,0.6-1.1,1.1-1.9,1.5c-0.9,0.4-1.9,0.6-3.2,0.6C225.9,69.2,224.8,69,223.7,68.7z"></path>
			<path fill="#FFFFFF" d="M257.2,62.4c0.6,0.7,0.8,1.5,0.8,2.5c0,1.3-0.5,2.3-1.5,3.1c-1,0.7-2.4,1.1-4.3,1.1h-7.1V53.7h6.7     c1.7,0,3.1,0.3,4,1s1.4,1.7,1.4,2.9c0,0.9-0.2,1.6-0.6,2.2c-0.4,0.6-1,1-1.7,1.3C255.9,61.4,256.7,61.8,257.2,62.4z M246.8,55     v5.6h4.9c1.2,0,2.2-0.2,2.9-0.7s1-1.2,1-2.1c0-0.9-0.3-1.6-1-2.1S253,55,251.7,55H246.8z M255.4,67c0.7-0.5,1.1-1.2,1.1-2.2     c0-1.9-1.4-2.9-4.2-2.9h-5.4v5.8h5.4C253.6,67.8,254.7,67.5,255.4,67z"></path>
			<path fill="#FFFFFF" d="M274.2,67.7v1.4h-10.9V53.7h10.6v1.4h-9v5.5h8V62h-8v5.7H274.2z"></path>
			<path fill="#FFFFFF" d="M284.7,63.8v5.3h-1.6v-5.3l-6.2-10.1h1.7l5.3,8.7l5.3-8.7h1.6L284.7,63.8z"></path>
			<path fill="#FFFFFF" d="M296.9,68.2c-1.2-0.7-2.2-1.6-2.9-2.8c-0.7-1.2-1-2.5-1-4s0.3-2.8,1-4s1.7-2.1,2.9-2.8     c1.2-0.7,2.6-1,4.2-1c1.5,0,2.9,0.3,4.1,1s2.2,1.6,2.9,2.8c0.7,1.2,1.1,2.5,1.1,4s-0.4,2.8-1.1,4s-1.7,2.1-2.9,2.8     c-1.2,0.7-2.6,1-4.1,1C299.5,69.2,298.1,68.9,296.9,68.2z M304.3,66.9c1-0.6,1.8-1.3,2.3-2.3c0.6-1,0.8-2.1,0.8-3.3     s-0.3-2.3-0.8-3.3c-0.6-1-1.3-1.7-2.3-2.3s-2.1-0.8-3.3-0.8c-1.2,0-2.3,0.3-3.3,0.8c-1,0.6-1.8,1.3-2.3,2.3     c-0.6,1-0.8,2.1-0.8,3.3s0.3,2.3,0.8,3.3c0.6,1,1.3,1.7,2.3,2.3c1,0.6,2.1,0.8,3.3,0.8C302.2,67.8,303.3,67.5,304.3,66.9z"></path>
			<path fill="#FFFFFF" d="M327.2,53.7v15.4h-1.3L316,56.6v12.5h-1.6V53.7h1.3l9.9,12.5V53.7H327.2z"></path>
			<path fill="#FFFFFF" d="M333.7,53.7h6.3c1.6,0,3.1,0.3,4.3,1c1.2,0.7,2.2,1.6,2.9,2.7c0.7,1.2,1,2.5,1,4s-0.3,2.8-1,4     s-1.7,2.1-2.9,2.7c-1.2,0.7-2.7,1-4.3,1h-6.3V53.7z M339.9,67.7c1.4,0,2.5-0.3,3.6-0.8c1-0.5,1.8-1.3,2.4-2.2     c0.6-0.9,0.8-2,0.8-3.3s-0.3-2.3-0.8-3.3c-0.6-0.9-1.3-1.7-2.4-2.2c-1-0.5-2.2-0.8-3.6-0.8h-4.6v12.6H339.9z"></path>
			<path fill="#FFFFFF" d="M363.3,68.2c-1.2-0.7-2.2-1.6-2.9-2.8c-0.7-1.2-1-2.5-1-4s0.3-2.8,1-4s1.7-2.1,2.9-2.8     c1.2-0.7,2.6-1,4.1-1c1.1,0,2.2,0.2,3.2,0.6c1,0.4,1.8,0.9,2.5,1.7l-1,1c-1.2-1.2-2.7-1.8-4.6-1.8c-1.2,0-2.3,0.3-3.3,0.8     c-1,0.6-1.8,1.3-2.3,2.3c-0.6,1-0.8,2.1-0.8,3.3s0.3,2.3,0.8,3.3c0.6,1,1.3,1.7,2.3,2.3c1,0.6,2.1,0.8,3.3,0.8     c1.9,0,3.4-0.6,4.6-1.9l1,1c-0.7,0.7-1.5,1.3-2.5,1.7c-1,0.4-2,0.6-3.2,0.6C365.9,69.2,364.6,68.9,363.3,68.2z"></path>
			<path fill="#FFFFFF" d="M391.1,53.7v15.4h-1.6V62h-9.7v7.1h-1.6V53.7h1.6v6.9h9.7v-6.9H391.1z"></path>
			<path fill="#FFFFFF" d="M408.5,67.7v1.4h-10.9V53.7h10.6v1.4h-9v5.5h8V62h-8v5.7H408.5z"></path>
			<path fill="#FFFFFF" d="M429.9,53.7v15.4h-1.6V56.7l-6.1,10.4h-0.8l-6.1-10.3v12.3h-1.6V53.7h1.3l6.7,11.4l6.6-11.4     C428.3,53.7,429.9,53.7,429.9,53.7z"></path>
			<path fill="#FFFFFF" d="M436.5,53.7h1.6v15.4h-1.6V53.7z"></path>
			<path fill="#FFFFFF" d="M445.6,68.7c-1.1-0.4-1.9-0.9-2.4-1.5l0.6-1.3c0.6,0.6,1.3,1,2.2,1.4c0.9,0.3,1.9,0.5,2.9,0.5     c1.4,0,2.4-0.3,3.1-0.8s1-1.2,1-2c0-0.6-0.2-1.1-0.6-1.5s-0.8-0.7-1.4-0.8c-0.5-0.2-1.3-0.4-2.3-0.7c-1.2-0.3-2.1-0.6-2.8-0.8     c-0.7-0.3-1.3-0.7-1.8-1.2c-0.5-0.6-0.7-1.3-0.7-2.3c0-0.8,0.2-1.5,0.6-2.1s1-1.2,1.9-1.5c0.9-0.4,1.9-0.6,3.2-0.6     c0.9,0,1.7,0.1,2.6,0.4c0.8,0.2,1.6,0.6,2.2,1l-0.6,1.3c-0.6-0.4-1.3-0.7-2.1-1c-0.7-0.2-1.5-0.3-2.2-0.3c-1.4,0-2.4,0.3-3.1,0.8     s-1,1.2-1,2c0,0.6,0.2,1.1,0.6,1.5s0.8,0.7,1.4,0.9s1.3,0.4,2.3,0.7c1.1,0.3,2,0.6,2.7,0.8c0.7,0.3,1.3,0.7,1.8,1.2     c0.5,0.6,0.7,1.3,0.7,2.2c0,0.8-0.2,1.5-0.6,2.1s-1.1,1.1-1.9,1.5c-0.9,0.4-1.9,0.6-3.2,0.6C447.8,69.2,446.7,69,445.6,68.7z"></path>
			<path fill="#FFFFFF" d="M462.5,55.1h-5.4v-1.4h12.5v1.4h-5.4v14h-1.6v-14H462.5z"></path>
			<path fill="#FFFFFF" d="M484.2,69.1l-3.5-5c-0.4,0-0.8,0.1-1.2,0.1h-4.1v4.9h-1.6V53.7h5.8c2,0,3.5,0.5,4.6,1.4s1.7,2.2,1.7,3.9     c0,1.2-0.3,2.2-0.9,3.1c-0.6,0.8-1.5,1.4-2.6,1.8l3.8,5.3h-2V69.1z M482.9,61.8c0.8-0.7,1.2-1.6,1.2-2.8s-0.4-2.2-1.2-2.9     c-0.8-0.7-2-1-3.5-1h-4.1v7.7h4.1C481,62.8,482.1,62.5,482.9,61.8z"></path>
			<path fill="#FFFFFF" d="M496.2,63.8v5.3h-1.6v-5.3l-6.2-10.1h1.7l5.3,8.7l5.3-8.7h1.6L496.2,63.8z"></path>
		</g>
	</g>
</g>
</svg>
