<?xml version="1.0" encoding="UTF-8"?>
<svg xmlns="http://www.w3.org/2000/svg" xmlns:xlink="http://www.w3.org/1999/xlink" width="100px" height="18px" viewBox="0 0 99 18" version="1.1">
<g id="surface1">
<path style="fill-rule:nonzero;fill:rgb(3.921569%,66.27451%,30.196078%);fill-opacity:1;stroke-width:2;stroke-linecap:butt;stroke-linejoin:miter;stroke:rgb(3.921569%,66.27451%,30.196078%);stroke-opacity:1;stroke-miterlimit:10;" d="M 76.993371 23.895399 L 39.891493 2.50803 L 2.809541 23.994141 L 2.90917 66.808377 L 8.707584 70.205078 L 8.707584 27.292101 L 39.891493 9.301432 L 71.095328 27.292101 L 71.194957 63.293186 L 39.991122 81.402344 L 19.806266 69.790365 L 19.706637 42.004557 L 19.706637 34.401476 L 39.293718 23.105469 L 58.900726 34.401476 L 58.900726 56.99349 L 39.293718 68.309245 L 31.403093 63.806641 L 31.403093 41.096137 L 39.293718 36.494792 L 47.303898 41.096137 L 47.303898 50.298828 L 39.293718 54.900174 L 37.201507 53.596788 L 37.201507 60.390191 L 39.293718 61.594835 L 53.102312 53.596788 L 53.102312 37.699436 L 39.293718 29.80013 L 25.505051 37.798177 L 25.60468 67.104601 L 31.403093 70.501302 L 39.393348 75.102648 L 64.798769 60.29145 L 64.69914 31.004774 L 39.293718 16.292318 L 13.908223 31.103516 L 13.908223 73.206814 L 19.806266 76.504774 L 39.991122 88.195747 L 76.993371 66.709635 Z M 76.993371 23.895399 " transform="matrix(0.19604,0,0,0.197802,0,0)"/>
<path style=" stroke:none;fill-rule:nonzero;fill:rgb(3.921569%,66.27451%,30.196078%);fill-opacity:1;" d="M 21.328125 3.976562 C 21.664062 4.132812 21.917969 4.351562 22.09375 4.628906 C 22.269531 4.90625 22.367188 5.242188 22.367188 5.617188 C 22.367188 5.992188 22.269531 6.328125 22.09375 6.605469 C 21.917969 6.882812 21.664062 7.101562 21.328125 7.257812 C 20.996094 7.417969 20.605469 7.476562 20.152344 7.476562 L 19.132812 7.476562 L 19.132812 8.902344 L 17.957031 8.902344 L 17.957031 3.738281 L 20.171875 3.738281 C 20.605469 3.738281 20.996094 3.816406 21.328125 3.976562 Z M 20.898438 6.269531 C 21.074219 6.113281 21.171875 5.894531 21.171875 5.617188 C 21.171875 5.320312 21.074219 5.101562 20.898438 4.945312 C 20.722656 4.785156 20.445312 4.707031 20.09375 4.707031 L 19.132812 4.707031 L 19.132812 6.488281 L 20.09375 6.488281 C 20.445312 6.507812 20.722656 6.429688 20.898438 6.269531 Z M 20.898438 6.269531 "/>
<path style=" stroke:none;fill-rule:nonzero;fill:rgb(3.921569%,66.27451%,30.196078%);fill-opacity:1;" d="M 24.328125 8.644531 C 23.898438 8.40625 23.5625 8.089844 23.328125 7.695312 C 23.09375 7.300781 22.976562 6.84375 22.976562 6.328125 C 22.976562 5.816406 23.09375 5.359375 23.328125 4.964844 C 23.5625 4.570312 23.898438 4.234375 24.328125 4.015625 C 24.761719 3.777344 25.230469 3.679688 25.757812 3.679688 C 26.289062 3.679688 26.757812 3.796875 27.191406 4.015625 C 27.621094 4.253906 27.957031 4.570312 28.191406 4.964844 C 28.425781 5.359375 28.5625 5.816406 28.5625 6.328125 C 28.5625 6.84375 28.445312 7.300781 28.191406 7.695312 C 27.957031 8.089844 27.621094 8.425781 27.191406 8.644531 C 26.757812 8.882812 26.289062 8.980469 25.757812 8.980469 C 25.230469 8.980469 24.738281 8.863281 24.328125 8.644531 Z M 26.582031 7.753906 C 26.816406 7.617188 27.015625 7.417969 27.152344 7.160156 C 27.289062 6.902344 27.367188 6.625 27.367188 6.308594 C 27.367188 5.992188 27.289062 5.695312 27.152344 5.460938 C 27.015625 5.203125 26.816406 5.003906 26.582031 4.867188 C 26.347656 4.726562 26.074219 4.648438 25.757812 4.648438 C 25.464844 4.648438 25.191406 4.726562 24.9375 4.867188 C 24.699219 5.003906 24.503906 5.203125 24.367188 5.460938 C 24.230469 5.714844 24.152344 5.992188 24.152344 6.308594 C 24.152344 6.625 24.230469 6.921875 24.367188 7.160156 C 24.503906 7.417969 24.699219 7.617188 24.9375 7.753906 C 25.171875 7.890625 25.445312 7.972656 25.757812 7.972656 C 26.054688 7.972656 26.328125 7.890625 26.582031 7.753906 Z M 26.582031 7.753906 "/>
<path style=" stroke:none;fill-rule:nonzero;fill:rgb(3.921569%,66.27451%,30.196078%);fill-opacity:1;" d="M 29.445312 3.738281 L 30.621094 3.738281 L 30.621094 7.910156 L 33.191406 7.910156 L 33.191406 8.902344 L 29.445312 8.902344 Z M 29.445312 3.738281 "/>
<path style=" stroke:none;fill-rule:nonzero;fill:rgb(3.921569%,66.27451%,30.196078%);fill-opacity:1;" d="M 35.777344 7.0625 L 35.777344 8.902344 L 34.601562 8.902344 L 34.601562 7.0625 L 32.621094 3.757812 L 33.875 3.757812 L 35.246094 6.054688 L 36.621094 3.757812 L 37.777344 3.757812 Z M 35.777344 7.0625 "/>
<path style=" stroke:none;fill-rule:nonzero;fill:rgb(3.921569%,66.27451%,30.196078%);fill-opacity:1;" d="M 42.855469 8.902344 L 42.855469 5.816406 L 41.34375 8.367188 L 40.816406 8.367188 L 39.324219 5.894531 L 39.324219 8.902344 L 38.207031 8.902344 L 38.207031 3.738281 L 39.1875 3.738281 L 41.109375 6.941406 L 42.992188 3.738281 L 43.972656 3.738281 L 43.992188 8.902344 Z M 42.855469 8.902344 "/>
<path style=" stroke:none;fill-rule:nonzero;fill:rgb(3.921569%,66.27451%,30.196078%);fill-opacity:1;" d="M 49.128906 7.933594 L 49.128906 8.902344 L 45.167969 8.902344 L 45.167969 3.738281 L 49.03125 3.738281 L 49.03125 4.6875 L 46.34375 4.6875 L 46.34375 5.816406 L 48.714844 5.816406 L 48.714844 6.746094 L 46.34375 6.746094 L 46.34375 7.933594 C 46.34375 7.933594 49.128906 7.933594 49.128906 7.933594 Z M 49.128906 7.933594 "/>
<path style=" stroke:none;fill-rule:nonzero;fill:rgb(3.921569%,66.27451%,30.196078%);fill-opacity:1;" d="M 53.324219 8.902344 L 52.34375 7.457031 L 51.265625 7.457031 L 51.265625 8.902344 L 50.089844 8.902344 L 50.089844 3.738281 L 52.304688 3.738281 C 52.753906 3.738281 53.144531 3.816406 53.480469 3.976562 C 53.8125 4.132812 54.066406 4.351562 54.246094 4.628906 C 54.421875 4.90625 54.519531 5.242188 54.519531 5.617188 C 54.519531 5.992188 54.421875 6.328125 54.246094 6.605469 C 54.066406 6.882812 53.792969 7.101562 53.460938 7.238281 L 54.597656 8.902344 Z M 53.027344 4.945312 C 52.851562 4.785156 52.578125 4.707031 52.226562 4.707031 L 51.265625 4.707031 L 51.265625 6.507812 L 52.226562 6.507812 C 52.578125 6.507812 52.851562 6.429688 53.027344 6.269531 C 53.207031 6.113281 53.304688 5.894531 53.304688 5.617188 C 53.304688 5.320312 53.207031 5.101562 53.027344 4.945312 Z M 53.027344 4.945312 "/>
<path style=" stroke:none;fill-rule:nonzero;fill:rgb(100%,100%,100%);fill-opacity:1;" d="M 55.890625 8.800781 C 55.519531 8.683594 55.222656 8.546875 55.027344 8.347656 L 55.363281 7.59375 C 55.578125 7.753906 55.832031 7.890625 56.125 8.011719 C 56.441406 8.109375 56.734375 8.167969 57.046875 8.167969 C 57.421875 8.167969 57.714844 8.109375 57.890625 7.992188 C 58.085938 7.871094 58.164062 7.714844 58.164062 7.496094 C 58.164062 7.359375 58.105469 7.21875 58.007812 7.140625 C 57.910156 7.042969 57.773438 6.960938 57.617188 6.921875 C 57.460938 6.863281 57.242188 6.804688 56.96875 6.746094 C 56.578125 6.644531 56.261719 6.566406 56.027344 6.46875 C 55.792969 6.371094 55.578125 6.230469 55.402344 6.03125 C 55.222656 5.835938 55.144531 5.558594 55.144531 5.222656 C 55.144531 4.945312 55.222656 4.6875 55.382812 4.449219 C 55.539062 4.214844 55.773438 4.035156 56.066406 3.898438 C 56.382812 3.757812 56.753906 3.699219 57.203125 3.699219 C 57.519531 3.699219 57.832031 3.738281 58.125 3.816406 C 58.417969 3.898438 58.695312 4.015625 58.910156 4.152344 L 58.617188 4.90625 C 58.398438 4.765625 58.164062 4.667969 57.910156 4.609375 C 57.675781 4.550781 57.441406 4.511719 57.203125 4.511719 C 56.832031 4.511719 56.558594 4.570312 56.363281 4.707031 C 56.183594 4.828125 56.085938 5.003906 56.085938 5.222656 C 56.085938 5.359375 56.144531 5.5 56.242188 5.578125 C 56.339844 5.675781 56.480469 5.734375 56.636719 5.796875 C 56.792969 5.855469 57.007812 5.914062 57.28125 5.972656 C 57.65625 6.054688 57.96875 6.152344 58.222656 6.25 C 58.460938 6.347656 58.675781 6.488281 58.851562 6.6875 C 59.027344 6.882812 59.105469 7.140625 59.105469 7.476562 C 59.105469 7.753906 59.027344 8.011719 58.871094 8.25 C 58.714844 8.484375 58.480469 8.664062 58.164062 8.800781 C 57.851562 8.941406 57.480469 9 57.027344 9 C 56.65625 8.960938 56.261719 8.921875 55.890625 8.800781 Z M 55.890625 8.800781 "/>
<path style=" stroke:none;fill-rule:nonzero;fill:rgb(100%,100%,100%);fill-opacity:1;" d="M 61.027344 8.625 C 60.617188 8.386719 60.28125 8.070312 60.046875 7.675781 C 59.8125 7.277344 59.695312 6.824219 59.695312 6.308594 C 59.695312 5.816406 59.8125 5.359375 60.046875 4.945312 C 60.28125 4.550781 60.617188 4.234375 61.027344 3.996094 C 61.4375 3.757812 61.910156 3.660156 62.4375 3.660156 C 62.96875 3.660156 63.417969 3.777344 63.851562 3.996094 C 64.261719 4.234375 64.59375 4.53125 64.832031 4.945312 C 65.066406 5.339844 65.183594 5.796875 65.183594 6.308594 C 65.183594 6.824219 65.066406 7.277344 64.832031 7.675781 C 64.59375 8.070312 64.261719 8.386719 63.851562 8.625 C 63.4375 8.863281 62.96875 8.960938 62.4375 8.960938 C 61.910156 8.960938 61.4375 8.863281 61.027344 8.625 Z M 63.359375 7.890625 C 63.632812 7.734375 63.851562 7.515625 64.007812 7.238281 C 64.164062 6.960938 64.242188 6.644531 64.242188 6.308594 C 64.242188 5.972656 64.164062 5.65625 64.007812 5.378906 C 63.851562 5.101562 63.632812 4.886719 63.359375 4.726562 C 63.085938 4.570312 62.773438 4.488281 62.4375 4.488281 C 62.105469 4.488281 61.792969 4.570312 61.515625 4.726562 C 61.242188 4.886719 61.027344 5.101562 60.871094 5.378906 C 60.714844 5.65625 60.636719 5.972656 60.636719 6.308594 C 60.636719 6.644531 60.714844 6.960938 60.871094 7.238281 C 61.027344 7.515625 61.242188 7.734375 61.515625 7.890625 C 61.792969 8.050781 62.105469 8.128906 62.4375 8.128906 C 62.773438 8.128906 63.085938 8.050781 63.359375 7.890625 Z M 63.359375 7.890625 "/>
<path style=" stroke:none;fill-rule:nonzero;fill:rgb(100%,100%,100%);fill-opacity:1;" d="M 66.183594 3.738281 L 67.125 3.738281 L 67.125 8.089844 L 69.789062 8.089844 L 69.789062 8.902344 L 66.164062 8.902344 L 66.164062 3.738281 Z M 66.183594 3.738281 "/>
<path style=" stroke:none;fill-rule:nonzero;fill:rgb(100%,100%,100%);fill-opacity:1;" d="M 71.042969 8.367188 C 70.652344 7.972656 70.457031 7.398438 70.457031 6.644531 L 70.457031 3.738281 L 71.398438 3.738281 L 71.398438 6.605469 C 71.398438 7.617188 71.828125 8.128906 72.691406 8.128906 C 73.554688 8.128906 73.984375 7.617188 73.984375 6.605469 L 73.984375 3.738281 L 74.925781 3.738281 L 74.925781 6.644531 C 74.925781 7.398438 74.730469 7.972656 74.339844 8.367188 C 73.945312 8.761719 73.398438 8.960938 72.691406 8.960938 C 71.984375 8.960938 71.4375 8.761719 71.042969 8.367188 Z M 71.042969 8.367188 "/>
<path style=" stroke:none;fill-rule:nonzero;fill:rgb(100%,100%,100%);fill-opacity:1;" d="M 77.179688 4.550781 L 75.496094 4.550781 L 75.496094 3.738281 L 79.828125 3.738281 L 79.828125 4.550781 L 78.140625 4.550781 L 78.140625 8.902344 L 77.199219 8.902344 L 77.199219 4.550781 Z M 77.179688 4.550781 "/>
<path style=" stroke:none;fill-rule:nonzero;fill:rgb(100%,100%,100%);fill-opacity:1;" d="M 80.550781 3.738281 L 81.492188 3.738281 L 81.492188 8.902344 L 80.550781 8.902344 Z M 80.550781 3.738281 "/>
<path style=" stroke:none;fill-rule:nonzero;fill:rgb(100%,100%,100%);fill-opacity:1;" d="M 83.847656 8.625 C 83.433594 8.386719 83.101562 8.070312 82.867188 7.675781 C 82.628906 7.277344 82.511719 6.824219 82.511719 6.308594 C 82.511719 5.816406 82.628906 5.359375 82.867188 4.945312 C 83.101562 4.550781 83.433594 4.234375 83.847656 3.996094 C 84.257812 3.757812 84.726562 3.660156 85.257812 3.660156 C 85.785156 3.660156 86.238281 3.777344 86.667969 3.996094 C 87.082031 4.234375 87.414062 4.53125 87.648438 4.945312 C 87.882812 5.339844 88.003906 5.796875 88.003906 6.308594 C 88.003906 6.824219 87.882812 7.277344 87.648438 7.675781 C 87.414062 8.070312 87.082031 8.386719 86.667969 8.625 C 86.257812 8.863281 85.785156 8.960938 85.257812 8.960938 C 84.726562 8.960938 84.257812 8.863281 83.847656 8.625 Z M 86.179688 7.890625 C 86.453125 7.734375 86.667969 7.515625 86.824219 7.238281 C 86.984375 6.960938 87.0625 6.644531 87.0625 6.308594 C 87.0625 5.972656 86.984375 5.65625 86.824219 5.378906 C 86.667969 5.101562 86.453125 4.886719 86.179688 4.726562 C 85.90625 4.570312 85.589844 4.488281 85.257812 4.488281 C 84.925781 4.488281 84.609375 4.570312 84.335938 4.726562 C 84.0625 4.886719 83.847656 5.101562 83.6875 5.378906 C 83.53125 5.65625 83.453125 5.972656 83.453125 6.308594 C 83.453125 6.644531 83.53125 6.960938 83.6875 7.238281 C 83.847656 7.515625 84.0625 7.734375 84.335938 7.890625 C 84.609375 8.050781 84.925781 8.128906 85.257812 8.128906 C 85.589844 8.128906 85.90625 8.050781 86.179688 7.890625 Z M 86.179688 7.890625 "/>
<path style=" stroke:none;fill-rule:nonzero;fill:rgb(100%,100%,100%);fill-opacity:1;" d="M 93.550781 3.738281 L 93.550781 8.902344 L 92.765625 8.902344 L 89.941406 5.417969 L 89.941406 8.902344 L 89.003906 8.902344 L 89.003906 3.738281 L 89.785156 3.738281 L 92.609375 7.21875 L 92.609375 3.738281 Z M 93.550781 3.738281 "/>
<path style=" stroke:none;fill-rule:nonzero;fill:rgb(100%,100%,100%);fill-opacity:1;" d="M 95.375 8.800781 C 95 8.683594 94.707031 8.546875 94.511719 8.347656 L 94.84375 7.59375 C 95.058594 7.753906 95.316406 7.890625 95.609375 8.011719 C 95.921875 8.109375 96.214844 8.167969 96.53125 8.167969 C 96.902344 8.167969 97.195312 8.109375 97.371094 7.992188 C 97.570312 7.871094 97.648438 7.714844 97.648438 7.496094 C 97.648438 7.359375 97.589844 7.21875 97.492188 7.140625 C 97.390625 7.042969 97.253906 6.960938 97.097656 6.921875 C 96.941406 6.863281 96.726562 6.804688 96.453125 6.746094 C 96.058594 6.644531 95.746094 6.566406 95.511719 6.46875 C 95.273438 6.371094 95.058594 6.230469 94.882812 6.03125 C 94.707031 5.835938 94.628906 5.558594 94.628906 5.222656 C 94.628906 4.945312 94.707031 4.6875 94.863281 4.449219 C 95.019531 4.214844 95.253906 4.035156 95.550781 3.898438 C 95.863281 3.757812 96.234375 3.699219 96.6875 3.699219 C 97 3.699219 97.3125 3.738281 97.609375 3.816406 C 97.902344 3.898438 98.175781 4.015625 98.390625 4.152344 L 98.097656 4.90625 C 97.882812 4.765625 97.648438 4.667969 97.390625 4.609375 C 97.15625 4.550781 96.921875 4.511719 96.6875 4.511719 C 96.3125 4.511719 96.039062 4.570312 95.84375 4.707031 C 95.667969 4.828125 95.570312 5.003906 95.570312 5.222656 C 95.570312 5.359375 95.628906 5.5 95.726562 5.578125 C 95.824219 5.675781 95.960938 5.734375 96.117188 5.796875 C 96.273438 5.855469 96.492188 5.914062 96.765625 5.972656 C 97.136719 6.054688 97.453125 6.152344 97.707031 6.25 C 97.941406 6.347656 98.15625 6.488281 98.332031 6.6875 C 98.511719 6.882812 98.589844 7.140625 98.589844 7.476562 C 98.589844 7.753906 98.511719 8.011719 98.351562 8.25 C 98.195312 8.484375 97.960938 8.664062 97.648438 8.800781 C 97.332031 8.941406 96.960938 9 96.511719 9 C 96.117188 8.960938 95.726562 8.921875 95.375 8.800781 Z M 95.375 8.800781 "/>
<path style=" stroke:none;fill-rule:nonzero;fill:rgb(100%,100%,100%);fill-opacity:1;" d="M 18.40625 13.589844 C 18.191406 13.511719 18.035156 13.410156 17.9375 13.292969 L 18.054688 13.035156 C 18.171875 13.152344 18.308594 13.234375 18.488281 13.3125 C 18.664062 13.371094 18.859375 13.410156 19.054688 13.410156 C 19.328125 13.410156 19.527344 13.351562 19.664062 13.253906 C 19.800781 13.152344 19.859375 13.015625 19.859375 12.855469 C 19.859375 12.738281 19.820312 12.640625 19.742188 12.558594 C 19.664062 12.480469 19.585938 12.421875 19.464844 12.402344 C 19.367188 12.363281 19.210938 12.324219 19.015625 12.265625 C 18.78125 12.203125 18.605469 12.144531 18.46875 12.105469 C 18.328125 12.046875 18.210938 11.96875 18.113281 11.867188 C 18.015625 11.75 17.976562 11.609375 17.976562 11.414062 C 17.976562 11.253906 18.015625 11.117188 18.09375 10.996094 C 18.171875 10.878906 18.289062 10.761719 18.46875 10.699219 C 18.644531 10.621094 18.839844 10.582031 19.09375 10.582031 C 19.269531 10.582031 19.425781 10.601562 19.605469 10.660156 C 19.761719 10.699219 19.917969 10.78125 20.035156 10.859375 L 19.917969 11.117188 C 19.800781 11.039062 19.664062 10.976562 19.507812 10.917969 C 19.367188 10.878906 19.210938 10.859375 19.074219 10.859375 C 18.800781 10.859375 18.605469 10.917969 18.46875 11.019531 C 18.328125 11.117188 18.269531 11.253906 18.269531 11.414062 C 18.269531 11.53125 18.308594 11.628906 18.386719 11.710938 C 18.46875 11.789062 18.546875 11.847656 18.664062 11.886719 C 18.78125 11.925781 18.917969 11.96875 19.113281 12.027344 C 19.328125 12.085938 19.507812 12.144531 19.644531 12.183594 C 19.78125 12.242188 19.898438 12.324219 19.996094 12.421875 C 20.09375 12.539062 20.132812 12.679688 20.132812 12.855469 C 20.132812 13.015625 20.09375 13.152344 20.015625 13.273438 C 19.9375 13.390625 19.800781 13.488281 19.644531 13.570312 C 19.464844 13.648438 19.269531 13.6875 19.015625 13.6875 C 18.820312 13.6875 18.605469 13.648438 18.40625 13.589844 Z M 18.40625 13.589844 "/>
<path style=" stroke:none;fill-rule:nonzero;fill:rgb(100%,100%,100%);fill-opacity:1;" d="M 21.683594 13.488281 C 21.445312 13.351562 21.25 13.171875 21.113281 12.9375 C 20.976562 12.699219 20.917969 12.441406 20.917969 12.144531 C 20.917969 11.847656 20.976562 11.589844 21.113281 11.355469 C 21.25 11.117188 21.445312 10.9375 21.683594 10.800781 C 21.917969 10.660156 22.191406 10.601562 22.503906 10.601562 C 22.800781 10.601562 23.074219 10.660156 23.308594 10.800781 C 23.542969 10.9375 23.742188 11.117188 23.878906 11.355469 C 24.015625 11.589844 24.09375 11.847656 24.09375 12.144531 C 24.09375 12.441406 24.015625 12.699219 23.878906 12.9375 C 23.742188 13.171875 23.542969 13.351562 23.308594 13.488281 C 23.074219 13.628906 22.800781 13.6875 22.503906 13.6875 C 22.191406 13.6875 21.917969 13.628906 21.683594 13.488281 Z M 23.152344 13.234375 C 23.347656 13.113281 23.503906 12.976562 23.601562 12.777344 C 23.722656 12.582031 23.761719 12.363281 23.761719 12.125 C 23.761719 11.886719 23.703125 11.671875 23.601562 11.472656 C 23.484375 11.273438 23.347656 11.136719 23.152344 11.019531 C 22.957031 10.898438 22.742188 10.859375 22.503906 10.859375 C 22.269531 10.859375 22.054688 10.917969 21.859375 11.019531 C 21.664062 11.136719 21.503906 11.273438 21.40625 11.472656 C 21.289062 11.671875 21.25 11.886719 21.25 12.125 C 21.25 12.363281 21.308594 12.582031 21.40625 12.777344 C 21.523438 12.976562 21.664062 13.113281 21.859375 13.234375 C 22.054688 13.351562 22.269531 13.390625 22.503906 13.390625 C 22.742188 13.410156 22.957031 13.351562 23.152344 13.234375 Z M 23.152344 13.234375 "/>
<path style=" stroke:none;fill-rule:nonzero;fill:rgb(100%,100%,100%);fill-opacity:1;" d="M 25.09375 10.621094 L 25.40625 10.621094 L 25.40625 13.390625 L 27.09375 13.390625 L 27.09375 13.667969 L 25.09375 13.667969 Z M 25.09375 10.621094 "/>
<path style=" stroke:none;fill-rule:nonzero;fill:rgb(100%,100%,100%);fill-opacity:1;" d="M 28.191406 13.351562 C 27.976562 13.132812 27.855469 12.796875 27.855469 12.363281 L 27.855469 10.621094 L 28.171875 10.621094 L 28.171875 12.363281 C 28.171875 12.71875 28.25 12.976562 28.40625 13.152344 C 28.5625 13.332031 28.796875 13.410156 29.09375 13.410156 C 29.386719 13.410156 29.621094 13.332031 29.777344 13.152344 C 29.933594 12.976562 30.011719 12.71875 30.011719 12.363281 L 30.011719 10.621094 L 30.328125 10.621094 L 30.328125 12.363281 C 30.328125 12.796875 30.210938 13.132812 29.992188 13.351562 C 29.777344 13.570312 29.464844 13.6875 29.074219 13.6875 C 28.71875 13.6875 28.40625 13.589844 28.191406 13.351562 Z M 28.191406 13.351562 "/>
<path style=" stroke:none;fill-rule:nonzero;fill:rgb(100%,100%,100%);fill-opacity:1;" d="M 32.132812 10.898438 L 31.074219 10.898438 L 31.074219 10.621094 L 33.523438 10.621094 L 33.523438 10.898438 L 32.464844 10.898438 L 32.464844 13.667969 L 32.152344 13.667969 L 32.152344 10.898438 Z M 32.132812 10.898438 "/>
<path style=" stroke:none;fill-rule:nonzero;fill:rgb(100%,100%,100%);fill-opacity:1;" d="M 34.328125 10.621094 L 34.640625 10.621094 L 34.640625 13.667969 L 34.328125 13.667969 Z M 34.328125 10.621094 "/>
<path style=" stroke:none;fill-rule:nonzero;fill:rgb(100%,100%,100%);fill-opacity:1;" d="M 36.445312 13.488281 C 36.207031 13.351562 36.011719 13.171875 35.875 12.9375 C 35.738281 12.699219 35.679688 12.441406 35.679688 12.144531 C 35.679688 11.847656 35.738281 11.589844 35.875 11.355469 C 36.011719 11.117188 36.207031 10.9375 36.445312 10.800781 C 36.679688 10.660156 36.953125 10.601562 37.265625 10.601562 C 37.5625 10.601562 37.835938 10.660156 38.070312 10.800781 C 38.304688 10.9375 38.503906 11.117188 38.640625 11.355469 C 38.777344 11.589844 38.855469 11.847656 38.855469 12.144531 C 38.855469 12.441406 38.777344 12.699219 38.640625 12.9375 C 38.503906 13.171875 38.304688 13.351562 38.070312 13.488281 C 37.835938 13.628906 37.5625 13.6875 37.265625 13.6875 C 36.953125 13.6875 36.679688 13.628906 36.445312 13.488281 Z M 37.914062 13.234375 C 38.109375 13.113281 38.265625 12.976562 38.363281 12.777344 C 38.484375 12.582031 38.523438 12.363281 38.523438 12.125 C 38.523438 11.886719 38.464844 11.671875 38.363281 11.472656 C 38.246094 11.273438 38.109375 11.136719 37.914062 11.019531 C 37.71875 10.898438 37.503906 10.859375 37.265625 10.859375 C 37.03125 10.859375 36.816406 10.917969 36.621094 11.019531 C 36.425781 11.136719 36.265625 11.273438 36.167969 11.472656 C 36.050781 11.671875 36.011719 11.886719 36.011719 12.125 C 36.011719 12.363281 36.070312 12.582031 36.167969 12.777344 C 36.285156 12.976562 36.425781 13.113281 36.621094 13.234375 C 36.816406 13.351562 37.03125 13.390625 37.265625 13.390625 C 37.503906 13.410156 37.71875 13.351562 37.914062 13.234375 Z M 37.914062 13.234375 "/>
<path style=" stroke:none;fill-rule:nonzero;fill:rgb(100%,100%,100%);fill-opacity:1;" d="M 42.382812 10.621094 L 42.382812 13.667969 L 42.128906 13.667969 L 40.1875 11.195312 L 40.1875 13.667969 L 39.875 13.667969 L 39.875 10.621094 L 40.128906 10.621094 L 42.070312 13.09375 L 42.070312 10.621094 Z M 42.382812 10.621094 "/>
<path style=" stroke:none;fill-rule:nonzero;fill:rgb(100%,100%,100%);fill-opacity:1;" d="M 43.855469 13.589844 C 43.636719 13.511719 43.480469 13.410156 43.382812 13.292969 L 43.5 13.035156 C 43.617188 13.152344 43.757812 13.234375 43.933594 13.3125 C 44.109375 13.371094 44.304688 13.410156 44.5 13.410156 C 44.777344 13.410156 44.972656 13.351562 45.109375 13.253906 C 45.246094 13.152344 45.304688 13.015625 45.304688 12.855469 C 45.304688 12.738281 45.265625 12.640625 45.1875 12.558594 C 45.109375 12.480469 45.03125 12.421875 44.914062 12.402344 C 44.816406 12.363281 44.65625 12.324219 44.460938 12.265625 C 44.226562 12.203125 44.050781 12.144531 43.914062 12.105469 C 43.777344 12.046875 43.65625 11.96875 43.558594 11.867188 C 43.460938 11.75 43.421875 11.609375 43.421875 11.414062 C 43.421875 11.253906 43.460938 11.117188 43.539062 10.996094 C 43.617188 10.878906 43.738281 10.761719 43.914062 10.699219 C 44.089844 10.621094 44.285156 10.582031 44.539062 10.582031 C 44.714844 10.582031 44.875 10.601562 45.050781 10.660156 C 45.207031 10.699219 45.363281 10.78125 45.480469 10.859375 L 45.363281 11.117188 C 45.246094 11.039062 45.109375 10.976562 44.953125 10.917969 C 44.816406 10.878906 44.65625 10.859375 44.519531 10.859375 C 44.246094 10.859375 44.050781 10.917969 43.914062 11.019531 C 43.777344 11.117188 43.71875 11.253906 43.71875 11.414062 C 43.71875 11.53125 43.757812 11.628906 43.835938 11.710938 C 43.914062 11.789062 43.992188 11.847656 44.109375 11.886719 C 44.226562 11.925781 44.363281 11.96875 44.558594 12.027344 C 44.777344 12.085938 44.953125 12.144531 45.089844 12.183594 C 45.226562 12.242188 45.34375 12.324219 45.441406 12.421875 C 45.539062 12.539062 45.578125 12.679688 45.578125 12.855469 C 45.578125 13.015625 45.539062 13.152344 45.460938 13.273438 C 45.382812 13.390625 45.246094 13.488281 45.089844 13.570312 C 44.914062 13.648438 44.714844 13.6875 44.460938 13.6875 C 44.285156 13.6875 44.070312 13.648438 43.855469 13.589844 Z M 43.855469 13.589844 "/>
<path style=" stroke:none;fill-rule:nonzero;fill:rgb(100%,100%,100%);fill-opacity:1;" d="M 50.421875 12.34375 C 50.539062 12.480469 50.578125 12.640625 50.578125 12.835938 C 50.578125 13.09375 50.480469 13.292969 50.285156 13.449219 C 50.089844 13.589844 49.8125 13.667969 49.441406 13.667969 L 48.050781 13.667969 L 48.050781 10.621094 L 49.363281 10.621094 C 49.695312 10.621094 49.96875 10.679688 50.148438 10.820312 C 50.324219 10.957031 50.421875 11.15625 50.421875 11.394531 C 50.421875 11.570312 50.382812 11.710938 50.304688 11.828125 C 50.226562 11.945312 50.109375 12.027344 49.96875 12.085938 C 50.167969 12.144531 50.324219 12.222656 50.421875 12.34375 Z M 48.382812 10.878906 L 48.382812 11.988281 L 49.34375 11.988281 C 49.578125 11.988281 49.773438 11.945312 49.910156 11.847656 C 50.050781 11.75 50.109375 11.609375 50.109375 11.433594 C 50.109375 11.253906 50.050781 11.117188 49.910156 11.019531 C 49.773438 10.917969 49.597656 10.878906 49.34375 10.878906 Z M 50.070312 13.253906 C 50.207031 13.152344 50.285156 13.015625 50.285156 12.816406 C 50.285156 12.441406 50.007812 12.242188 49.460938 12.242188 L 48.402344 12.242188 L 48.402344 13.390625 L 49.460938 13.390625 C 49.714844 13.410156 49.929688 13.351562 50.070312 13.253906 Z M 50.070312 13.253906 "/>
<path style=" stroke:none;fill-rule:nonzero;fill:rgb(100%,100%,100%);fill-opacity:1;" d="M 53.753906 13.390625 L 53.753906 13.667969 L 51.617188 13.667969 L 51.617188 10.621094 L 53.695312 10.621094 L 53.695312 10.898438 L 51.929688 10.898438 L 51.929688 11.988281 L 53.5 11.988281 L 53.5 12.265625 L 51.929688 12.265625 L 51.929688 13.390625 Z M 53.753906 13.390625 "/>
<path style=" stroke:none;fill-rule:nonzero;fill:rgb(100%,100%,100%);fill-opacity:1;" d="M 55.8125 12.621094 L 55.8125 13.667969 L 55.5 13.667969 L 55.5 12.621094 L 54.285156 10.621094 L 54.617188 10.621094 L 55.65625 12.34375 L 56.695312 10.621094 L 57.007812 10.621094 Z M 55.8125 12.621094 "/>
<path style=" stroke:none;fill-rule:nonzero;fill:rgb(100%,100%,100%);fill-opacity:1;" d="M 58.203125 13.488281 C 57.96875 13.351562 57.773438 13.171875 57.636719 12.9375 C 57.5 12.699219 57.441406 12.441406 57.441406 12.144531 C 57.441406 11.847656 57.5 11.589844 57.636719 11.355469 C 57.773438 11.117188 57.96875 10.9375 58.203125 10.800781 C 58.4375 10.660156 58.714844 10.601562 59.027344 10.601562 C 59.320312 10.601562 59.597656 10.660156 59.832031 10.800781 C 60.066406 10.9375 60.261719 11.117188 60.398438 11.355469 C 60.535156 11.589844 60.617188 11.847656 60.617188 12.144531 C 60.617188 12.441406 60.535156 12.699219 60.398438 12.9375 C 60.261719 13.171875 60.066406 13.351562 59.832031 13.488281 C 59.597656 13.628906 59.320312 13.6875 59.027344 13.6875 C 58.714844 13.6875 58.4375 13.628906 58.203125 13.488281 Z M 59.65625 13.234375 C 59.851562 13.113281 60.007812 12.976562 60.105469 12.777344 C 60.222656 12.582031 60.261719 12.363281 60.261719 12.125 C 60.261719 11.886719 60.203125 11.671875 60.105469 11.472656 C 59.988281 11.273438 59.851562 11.136719 59.65625 11.019531 C 59.457031 10.898438 59.242188 10.859375 59.007812 10.859375 C 58.773438 10.859375 58.558594 10.917969 58.359375 11.019531 C 58.164062 11.136719 58.007812 11.273438 57.910156 11.472656 C 57.792969 11.671875 57.753906 11.886719 57.753906 12.125 C 57.753906 12.363281 57.8125 12.582031 57.910156 12.777344 C 58.027344 12.976562 58.164062 13.113281 58.359375 13.234375 C 58.558594 13.351562 58.773438 13.390625 59.007812 13.390625 C 59.242188 13.410156 59.457031 13.351562 59.65625 13.234375 Z M 59.65625 13.234375 "/>
<path style=" stroke:none;fill-rule:nonzero;fill:rgb(100%,100%,100%);fill-opacity:1;" d="M 64.144531 10.621094 L 64.144531 13.667969 L 63.890625 13.667969 L 61.949219 11.195312 L 61.949219 13.667969 L 61.636719 13.667969 L 61.636719 10.621094 L 61.890625 10.621094 L 63.832031 13.09375 L 63.832031 10.621094 Z M 64.144531 10.621094 "/>
<path style=" stroke:none;fill-rule:nonzero;fill:rgb(100%,100%,100%);fill-opacity:1;" d="M 65.417969 10.621094 L 66.652344 10.621094 C 66.96875 10.621094 67.261719 10.679688 67.496094 10.820312 C 67.730469 10.957031 67.925781 11.136719 68.066406 11.355469 C 68.203125 11.589844 68.261719 11.847656 68.261719 12.144531 C 68.261719 12.441406 68.203125 12.699219 68.066406 12.9375 C 67.925781 13.171875 67.730469 13.351562 67.496094 13.46875 C 67.261719 13.609375 66.96875 13.667969 66.652344 13.667969 L 65.417969 13.667969 Z M 66.632812 13.390625 C 66.910156 13.390625 67.125 13.332031 67.339844 13.234375 C 67.535156 13.132812 67.691406 12.976562 67.808594 12.796875 C 67.925781 12.621094 67.96875 12.402344 67.96875 12.144531 C 67.96875 11.886719 67.90625 11.691406 67.808594 11.492188 C 67.691406 11.3125 67.554688 11.15625 67.339844 11.058594 C 67.144531 10.957031 66.910156 10.898438 66.632812 10.898438 L 65.730469 10.898438 L 65.730469 13.390625 Z M 66.632812 13.390625 "/>
<path style=" stroke:none;fill-rule:nonzero;fill:rgb(100%,100%,100%);fill-opacity:1;" d="M 71.222656 13.488281 C 70.984375 13.351562 70.789062 13.171875 70.652344 12.9375 C 70.515625 12.699219 70.457031 12.441406 70.457031 12.144531 C 70.457031 11.847656 70.515625 11.589844 70.652344 11.355469 C 70.789062 11.117188 70.984375 10.9375 71.222656 10.800781 C 71.457031 10.660156 71.730469 10.601562 72.023438 10.601562 C 72.242188 10.601562 72.457031 10.640625 72.652344 10.722656 C 72.847656 10.800781 73.003906 10.898438 73.140625 11.058594 L 72.945312 11.253906 C 72.710938 11.019531 72.417969 10.898438 72.042969 10.898438 C 71.808594 10.898438 71.59375 10.957031 71.398438 11.058594 C 71.203125 11.175781 71.042969 11.3125 70.945312 11.511719 C 70.828125 11.710938 70.789062 11.925781 70.789062 12.164062 C 70.789062 12.402344 70.847656 12.621094 70.945312 12.816406 C 71.0625 13.015625 71.203125 13.152344 71.398438 13.273438 C 71.59375 13.390625 71.808594 13.429688 72.042969 13.429688 C 72.417969 13.429688 72.710938 13.3125 72.945312 13.054688 L 73.140625 13.253906 C 73.003906 13.390625 72.847656 13.511719 72.652344 13.589844 C 72.457031 13.667969 72.261719 13.707031 72.023438 13.707031 C 71.730469 13.6875 71.476562 13.628906 71.222656 13.488281 Z M 71.222656 13.488281 "/>
<path style=" stroke:none;fill-rule:nonzero;fill:rgb(100%,100%,100%);fill-opacity:1;" d="M 76.671875 10.621094 L 76.671875 13.667969 L 76.359375 13.667969 L 76.359375 12.265625 L 74.457031 12.265625 L 74.457031 13.667969 L 74.140625 13.667969 L 74.140625 10.621094 L 74.457031 10.621094 L 74.457031 11.988281 L 76.359375 11.988281 L 76.359375 10.621094 Z M 76.671875 10.621094 "/>
<path style=" stroke:none;fill-rule:nonzero;fill:rgb(100%,100%,100%);fill-opacity:1;" d="M 80.082031 13.390625 L 80.082031 13.667969 L 77.945312 13.667969 L 77.945312 10.621094 L 80.023438 10.621094 L 80.023438 10.898438 L 78.257812 10.898438 L 78.257812 11.988281 L 79.828125 11.988281 L 79.828125 12.265625 L 78.257812 12.265625 L 78.257812 13.390625 Z M 80.082031 13.390625 "/>
<path style=" stroke:none;fill-rule:nonzero;fill:rgb(100%,100%,100%);fill-opacity:1;" d="M 84.277344 10.621094 L 84.277344 13.667969 L 83.964844 13.667969 L 83.964844 11.214844 L 82.769531 13.273438 L 82.609375 13.273438 L 81.414062 11.234375 L 81.414062 13.667969 L 81.101562 13.667969 L 81.101562 10.621094 L 81.355469 10.621094 L 82.667969 12.875 L 83.964844 10.621094 C 83.964844 10.621094 84.277344 10.621094 84.277344 10.621094 Z M 84.277344 10.621094 "/>
<path style=" stroke:none;fill-rule:nonzero;fill:rgb(100%,100%,100%);fill-opacity:1;" d="M 85.570312 10.621094 L 85.886719 10.621094 L 85.886719 13.667969 L 85.570312 13.667969 Z M 85.570312 10.621094 "/>
<path style=" stroke:none;fill-rule:nonzero;fill:rgb(100%,100%,100%);fill-opacity:1;" d="M 87.355469 13.589844 C 87.140625 13.511719 86.984375 13.410156 86.882812 13.292969 L 87.003906 13.035156 C 87.121094 13.152344 87.257812 13.234375 87.433594 13.3125 C 87.609375 13.371094 87.804688 13.410156 88.003906 13.410156 C 88.277344 13.410156 88.472656 13.351562 88.609375 13.253906 C 88.746094 13.152344 88.804688 13.015625 88.804688 12.855469 C 88.804688 12.738281 88.765625 12.640625 88.6875 12.558594 C 88.609375 12.480469 88.53125 12.421875 88.414062 12.402344 C 88.316406 12.363281 88.160156 12.324219 87.964844 12.265625 C 87.726562 12.203125 87.550781 12.144531 87.414062 12.105469 C 87.277344 12.046875 87.160156 11.96875 87.0625 11.867188 C 86.964844 11.75 86.925781 11.609375 86.925781 11.414062 C 86.925781 11.253906 86.964844 11.117188 87.042969 10.996094 C 87.121094 10.878906 87.238281 10.761719 87.414062 10.699219 C 87.589844 10.621094 87.785156 10.582031 88.042969 10.582031 C 88.21875 10.582031 88.375 10.601562 88.550781 10.660156 C 88.707031 10.699219 88.863281 10.78125 88.980469 10.859375 L 88.863281 11.117188 C 88.746094 11.039062 88.609375 10.976562 88.453125 10.917969 C 88.316406 10.878906 88.160156 10.859375 88.023438 10.859375 C 87.746094 10.859375 87.550781 10.917969 87.414062 11.019531 C 87.277344 11.117188 87.21875 11.253906 87.21875 11.414062 C 87.21875 11.53125 87.257812 11.628906 87.335938 11.710938 C 87.414062 11.789062 87.492188 11.847656 87.609375 11.886719 C 87.726562 11.925781 87.863281 11.96875 88.0625 12.027344 C 88.277344 12.085938 88.453125 12.144531 88.589844 12.183594 C 88.726562 12.242188 88.84375 12.324219 88.941406 12.421875 C 89.042969 12.539062 89.082031 12.679688 89.082031 12.855469 C 89.082031 13.015625 89.042969 13.152344 88.960938 13.273438 C 88.882812 13.390625 88.746094 13.488281 88.589844 13.570312 C 88.414062 13.648438 88.21875 13.6875 87.964844 13.6875 C 87.785156 13.6875 87.570312 13.648438 87.355469 13.589844 Z M 87.355469 13.589844 "/>
<path style=" stroke:none;fill-rule:nonzero;fill:rgb(100%,100%,100%);fill-opacity:1;" d="M 90.667969 10.898438 L 89.609375 10.898438 L 89.609375 10.621094 L 92.058594 10.621094 L 92.058594 10.898438 L 91 10.898438 L 91 13.667969 L 90.6875 13.667969 L 90.6875 10.898438 Z M 90.667969 10.898438 "/>
<path style=" stroke:none;fill-rule:nonzero;fill:rgb(100%,100%,100%);fill-opacity:1;" d="M 94.921875 13.667969 L 94.234375 12.679688 C 94.15625 12.679688 94.078125 12.699219 94 12.699219 L 93.195312 12.699219 L 93.195312 13.667969 L 92.882812 13.667969 L 92.882812 10.621094 L 94.019531 10.621094 C 94.414062 10.621094 94.707031 10.722656 94.921875 10.898438 C 95.136719 11.078125 95.253906 11.335938 95.253906 11.671875 C 95.253906 11.90625 95.195312 12.105469 95.078125 12.285156 C 94.960938 12.441406 94.785156 12.558594 94.570312 12.640625 L 95.316406 13.6875 L 94.921875 13.6875 Z M 94.667969 12.222656 C 94.824219 12.085938 94.902344 11.90625 94.902344 11.671875 C 94.902344 11.433594 94.824219 11.234375 94.667969 11.097656 C 94.511719 10.957031 94.277344 10.898438 93.980469 10.898438 L 93.175781 10.898438 L 93.175781 12.421875 L 93.980469 12.421875 C 94.296875 12.421875 94.511719 12.363281 94.667969 12.222656 Z M 94.667969 12.222656 "/>
<path style=" stroke:none;fill-rule:nonzero;fill:rgb(100%,100%,100%);fill-opacity:1;" d="M 97.273438 12.621094 L 97.273438 13.667969 L 96.960938 13.667969 L 96.960938 12.621094 L 95.746094 10.621094 L 96.078125 10.621094 L 97.117188 12.34375 L 98.15625 10.621094 L 98.46875 10.621094 Z M 97.273438 12.621094 "/>
</g>
</svg>
